<svg width="18" height="18" viewBox="0 0 18 18" fill="none" xmlns="http://www.w3.org/2000/svg">
<g clip-path="url(#clip0)">
<path d="M8.38367 15.7585L16.7003 7.44253C16.9077 7.23484 16.908 6.89852 16.7003 6.68987C16.4923 6.48251 16.155 6.48251 15.9473 6.68987L7.63101 15.0065C6.39291 16.2453 4.37751 16.2453 3.1394 15.0065C1.9013 13.7684 1.9013 11.7537 3.13972 10.5149L10.96 2.69427C11.7997 1.85458 13.1671 1.85458 14.0065 2.69427C14.8462 3.53333 14.8459 4.90104 14.0062 5.74073L7.24732 12.4996C6.82748 12.9188 6.14554 12.9194 5.72537 12.4989C5.30616 12.0807 5.30649 11.3988 5.72633 10.9789L11.641 5.06296C11.8484 4.85496 11.8487 4.51863 11.6407 4.31031C11.433 4.10262 11.096 4.10262 10.888 4.31031L4.97272 10.2256C4.13814 11.0599 4.13718 12.4186 4.97144 13.2529C5.80698 14.0875 7.1654 14.0875 8.00062 13.2529L14.7598 6.49435C16.0152 5.23896 16.0149 3.19604 14.7598 1.94098C13.5044 0.686234 11.4618 0.686234 10.2067 1.94162L2.38643 9.7613C0.732633 11.4154 0.732314 14.1057 2.38611 15.7598C4.0399 17.4136 6.72955 17.413 8.38367 15.7585Z" fill="white"/>
</g>
<defs>
<clipPath id="clip0">
<rect width="16" height="16" fill="white" transform="translate(17.001 1) rotate(90)"/>
</clipPath>
</defs>
</svg>
