<svg width="24" height="24" viewBox="0 0 24 24" fill="none" xmlns="http://www.w3.org/2000/svg">
<path fill-rule="evenodd" clip-rule="evenodd" d="M12.007 12.717L14.457 10.2671C14.5403 10.1763 14.6411 10.1033 14.7533 10.0526C14.8656 10.0018 14.9869 9.97427 15.1101 9.97164C15.2332 9.96901 15.3556 9.99134 15.4699 10.0373C15.5842 10.0832 15.688 10.1518 15.7751 10.2389C15.8622 10.326 15.9308 10.4298 15.9767 10.5441C16.0227 10.6584 16.045 10.7808 16.0424 10.904C16.0397 11.0271 16.0122 11.1485 15.9614 11.2607C15.9107 11.3729 15.8377 11.4737 15.747 11.557L12.691 14.614C12.6017 14.7034 12.4948 14.7733 12.377 14.8191C12.2592 14.8649 12.1332 14.8856 12.007 14.88C11.8808 14.8856 11.7548 14.8649 11.637 14.8191C11.5192 14.7733 11.4123 14.7034 11.323 14.614L8.26699 11.558C8.17625 11.4747 8.1033 11.3739 8.05255 11.2617C8.00179 11.1494 7.97427 11.0281 7.97164 10.9049C7.96901 10.7818 7.99134 10.6594 8.03726 10.5451C8.08318 10.4308 8.15176 10.327 8.23886 10.2399C8.32596 10.1528 8.42976 10.0842 8.54406 10.0383C8.65836 9.99237 8.78078 9.97005 8.90393 9.97268C9.02708 9.97531 9.14841 10.0029 9.26065 10.0536C9.37288 10.1044 9.4737 10.1773 9.557 10.268L12.007 12.717V12.717Z" fill="#A6ADB5"/>
</svg>
