<svg width="24" height="24" viewBox="0 0 24 24" fill="none" xmlns="http://www.w3.org/2000/svg">
<path fill-rule="evenodd" clip-rule="evenodd" d="M12.007 10.717L14.4571 8.26705C14.5404 8.17631 14.6411 8.10333 14.7534 8.05258C14.8656 8.00182 14.987 7.97427 15.1101 7.97164C15.2333 7.96901 15.3557 7.99134 15.47 8.03726C15.5843 8.08318 15.6881 8.15176 15.7752 8.23886C15.8623 8.32596 15.9309 8.42979 15.9768 8.54409C16.0227 8.65839 16.045 8.78081 16.0424 8.90396C16.0398 9.02711 16.0122 9.14847 15.9615 9.26071C15.9107 9.37294 15.8378 9.47373 15.7471 9.55703L12.6911 12.614C12.6018 12.7034 12.4948 12.7733 12.3771 12.8191C12.2593 12.8649 12.1333 12.8856 12.007 12.88C11.8808 12.8856 11.7548 12.8649 11.637 12.8191C11.5193 12.7733 11.4124 12.7034 11.3231 12.614L8.26705 9.55801C8.10786 9.38461 8.02179 9.15645 8.02682 8.92111C8.03185 8.68577 8.12758 8.46146 8.29403 8.29501C8.46048 8.12856 8.68479 8.03282 8.92013 8.0278C9.15547 8.02277 9.38366 8.10884 9.55706 8.26803L12.007 10.717V10.717Z" fill="#A6ADB5"/>
<path fill-rule="evenodd" clip-rule="evenodd" d="M12.007 13.164L9.557 15.614C9.4737 15.7047 9.37288 15.7776 9.26065 15.8284C9.14841 15.8792 9.02708 15.9067 8.90393 15.9093C8.78078 15.912 8.65836 15.8896 8.54406 15.8437C8.42976 15.7978 8.32596 15.7292 8.23886 15.6421C8.15176 15.555 8.08318 15.4512 8.03726 15.3369C7.99134 15.2226 7.96901 15.1002 7.97164 14.977C7.97427 14.8539 8.00179 14.7326 8.05255 14.6203C8.1033 14.5081 8.17625 14.4072 8.26699 14.3239L11.323 11.267C11.4123 11.1776 11.5192 11.1078 11.637 11.062C11.7548 11.0162 11.8808 10.9954 12.007 11.0009C12.1332 10.9954 12.2592 11.0162 12.377 11.062C12.4948 11.1078 12.6017 11.1776 12.691 11.267L15.747 14.323C15.8377 14.4063 15.9107 14.5071 15.9614 14.6193C16.0122 14.7315 16.0397 14.8529 16.0424 14.976C16.045 15.0992 16.0227 15.2216 15.9767 15.3359C15.9308 15.4502 15.8622 15.554 15.7751 15.6411C15.688 15.7282 15.5842 15.7968 15.4699 15.8427C15.3556 15.8886 15.2332 15.9109 15.1101 15.9083C14.9869 15.9057 14.8656 15.8782 14.7533 15.8274C14.6411 15.7767 14.5403 15.7037 14.457 15.6129L12.007 13.164V13.164Z" fill="#A6ADB5"/>
</svg>
